<svg width="1" height="44" viewBox="0 0 1 44" fill="none" xmlns="http://www.w3.org/2000/svg">
<g clip-path="url(#clip0_4038_5312)">
<path fill-rule="evenodd" clip-rule="evenodd" d="M-1.93627 -0.00195312C-4.36143 -0.00195312 -6.71182 0.837535 -8.58824 2.37392L-25.152 15.9362C-27.5876 17.9305 -29 20.9123 -29 24.0603V44.0026H-28V24.0603C-28 21.2121 -26.7221 18.5143 -24.5184 16.7099L-7.95471 3.14765C-6.25701 1.75758 -4.13046 0.998047 -1.93627 0.998047H-6.2063H44.2063H422.436C424.63 0.998047 426.757 1.75758 428.455 3.14765L445.018 16.7099C447.222 18.5143 448.5 21.2121 448.5 24.0603V44.0026H449.5V24.0603C449.5 20.9123 448.088 17.9305 445.652 15.9362L429.088 2.37392C427.212 0.837535 424.861 -0.00195312 422.436 -0.00195312H44.2063H-6.2063H-1.93627Z" fill="#E43C0C"/>
</g>
<defs>
<clipPath id="clip0_4038_5312">
<rect width="1" height="44" fill="white"/>
</clipPath>
</defs>
</svg>
