<svg width="154" height="35" viewBox="0 0 154 35" fill="none" xmlns="http://www.w3.org/2000/svg">
<path d="M13 35L8.84272 35C8.02522 35 7.24314 34.6664 6.67734 34.0763L0.834633 27.9831C0.299038 27.4245 2.07023e-06 26.6806 2.00257e-06 25.9068L0 3C-1.44846e-07 1.34315 1.34315 1.44847e-07 3 0L13 2.94047e-06L13 35Z" fill="white"/>
<path d="M141 8.55148e-06L145.157 1.76001e-06C145.975 1.90294e-06 146.757 0.33361 147.323 0.923667L153.165 7.01691C153.701 7.57547 154 8.31939 154 9.09324V32C154 33.6569 152.657 35 151 35L141 35L141 8.55148e-06Z" fill="white"/>
<path d="M13 2.94047e-06L13 35L141 35L141 8.55148e-06L13 2.94047e-06Z" fill="white"/>
</svg>
