<svg width="28" height="44" viewBox="0 0 28 44" fill="none" xmlns="http://www.w3.org/2000/svg">
<g clip-path="url(#clip0_4038_5310)">
<path fill-rule="evenodd" clip-rule="evenodd" d="M27.0637 -0.00195312C24.6386 -0.00195312 22.2882 0.837535 20.4118 2.37392L3.84803 15.9362C1.41238 17.9305 0 20.9123 0 24.0603V44.0026H1V24.0603C1 21.2121 2.27787 18.5143 4.48155 16.7099L21.0453 3.14765C22.743 1.75758 24.8695 0.998047 27.0637 0.998047H22.7937H73.2063H451.436C453.63 0.998047 455.757 1.75758 457.455 3.14765L474.018 16.7099C476.222 18.5143 477.5 21.2121 477.5 24.0603V44.0026H478.5V24.0603C478.5 20.9123 477.088 17.9305 474.652 15.9362L458.088 2.37392C456.212 0.837535 453.861 -0.00195312 451.436 -0.00195312H73.2063H22.7937H27.0637Z" fill="#E43C0C"/>
</g>
<defs>
<clipPath id="clip0_4038_5310">
<rect width="28" height="44" fill="white"/>
</clipPath>
</defs>
</svg>
