<svg width="233" height="294" viewBox="0 0 233 294" fill="none" xmlns="http://www.w3.org/2000/svg">
<path d="M1.25 21.8613V12.3613C1.25 10.7875 1.99097 9.3056 3.25 8.36133L11.9167 1.86133C12.7821 1.21222 13.8348 0.861328 14.9167 0.861328H218.526C219.643 0.861328 220.728 1.23537 221.608 1.9238L229.832 8.35993C231.042 9.30761 231.75 10.7598 231.75 12.2975V21.8613" stroke="#E43C0C"/>
<path d="M231.75 271.861L231.75 281.361C231.75 282.935 231.009 284.417 229.75 285.361L221.083 291.861C220.218 292.51 219.165 292.861 218.083 292.861L14.4739 292.861C13.3569 292.861 12.2721 292.487 11.3924 291.799L3.16846 285.363C1.95753 284.415 1.25 282.963 1.25 281.425L1.25 271.861" stroke="#E43C0C"/>
</svg>
