<svg width="28" height="44" viewBox="0 0 28 44" fill="none" xmlns="http://www.w3.org/2000/svg">
<g clip-path="url(#clip0_4038_5311)">
<path fill-rule="evenodd" clip-rule="evenodd" d="M-423.436 -0.00195312C-425.861 -0.00195312 -428.212 0.837535 -430.088 2.37392L-446.652 15.9362C-449.088 17.9305 -450.5 20.9123 -450.5 24.0603V44.0026H-449.5V24.0603C-449.5 21.2121 -448.222 18.5143 -446.018 16.7099L-429.455 3.14765C-427.757 1.75758 -425.63 0.998047 -423.436 0.998047H-427.706H-377.294H0.936279C3.13049 0.998047 5.25696 1.75758 6.95471 3.14765L23.5184 16.7099C25.7222 18.5143 27 21.2121 27 24.0603V44.0026H28V24.0603C28 20.9123 26.5876 17.9305 24.152 15.9362L7.58826 2.37392C5.71179 0.837535 3.36145 -0.00195312 0.936279 -0.00195312H-377.294H-427.706H-423.436Z" fill="#E43C0C"/>
</g>
<defs>
<clipPath id="clip0_4038_5311">
<rect width="28" height="44" fill="white"/>
</clipPath>
</defs>
</svg>
