<svg width="140" height="32" viewBox="0 0 140 32" fill="none" xmlns="http://www.w3.org/2000/svg">
<g clip-path="url(#clip0_1135_1853)">
<path d="M8.84271 32.0001H13L127 32H137C138.657 32 140 30.6569 140 29V9.09324C140 8.31939 139.701 7.57547 139.165 7.0169L133.323 0.923665C132.757 0.333609 131.975 0 131.157 0L127 6.79148e-06L13 4.48651e-06L3 0C1.34314 0 0 1.34315 0 3V22.9069C0 23.6807 0.299038 24.4246 0.834633 24.9832L6.67734 31.0764C7.24313 31.6665 8.02522 32.0001 8.84271 32.0001Z" fill="#E43C0C"/>
</g>
<defs>
<clipPath id="clip0_1135_1853">
<rect width="140" height="32" fill="white"/>
</clipPath>
</defs>
</svg>
