<svg width="108" height="32" viewBox="0 0 108 32" fill="none" xmlns="http://www.w3.org/2000/svg">
<g clip-path="url(#clip0_1135_1857)">
<path d="M13 32H8.84271C8.02522 32 7.24313 31.6664 6.67734 31.0763L0.834633 24.9831C0.299038 24.4245 1.80796e-06 23.6806 1.7403e-06 22.9068L0 3C-1.4485e-07 1.34315 1.34314 1.69091e-06 3 1.54611e-06L13 4.48651e-06L95 6.79148e-06L99.1573 0C99.9748 1.4294e-07 100.757 0.333609 101.323 0.923665L107.165 7.0169C107.701 7.57547 108 8.31939 108 9.09324V29C108 30.6569 106.657 32 105 32H95L13 32Z" fill="#E43C0C"/>
</g>
<defs>
<clipPath id="clip0_1135_1857">
<rect width="108" height="32" fill="white"/>
</clipPath>
</defs>
</svg>
