<svg width="342" height="316" viewBox="0 0 342 316" fill="none" xmlns="http://www.w3.org/2000/svg">
<path d="M179.422 315.388L322.465 315.388C325.01 315.388 327.456 314.395 329.282 312.621L338.033 304.12C339.93 302.278 341 299.746 341 297.102L341 50.5115C341 47.9166 339.969 45.428 338.134 43.5931L329.3 34.759C327.465 32.9241 324.977 31.8933 322.382 31.8933L200.934 31.8933C198.339 31.8933 195.85 30.8624 194.015 29.0275L168.951 3.96335C167.116 2.12846 164.628 1.09763 162.033 1.09762L21.6991 1.0976C19.1042 1.0976 16.6155 2.12843 14.7806 3.96332L3.86578 14.8782C2.03088 16.7131 1.00006 19.2017 1.00006 21.7966L1.00001 290.224C1.00001 295.627 5.38053 300.008 10.7842 300.008L155.937 300.008C158.532 300.008 161.021 301.039 162.856 302.874L172.504 312.522C174.339 314.357 176.827 315.388 179.422 315.388Z" stroke="white" stroke-width="0.489209"/>
</svg>
