<svg width="185" height="208" viewBox="0 0 185 208" fill="none" xmlns="http://www.w3.org/2000/svg">
<path d="M0.508789 21.5V12C0.508789 10.4262 1.24976 8.94427 2.50879 8L11.1755 1.5C12.0409 0.850889 13.0936 0.5 14.1755 0.5H170.785C171.902 0.5 172.987 0.874044 173.866 1.56248L182.09 7.9986C183.301 8.94628 184.009 10.3984 184.009 11.9361V21.5" stroke="#E43C0C"/>
<path d="M184.009 186.5L184.009 196C184.009 197.574 183.268 199.056 182.009 200L173.342 206.5C172.477 207.149 171.424 207.5 170.342 207.5L13.7327 207.5C12.6157 207.5 11.5308 207.126 10.6512 206.438L2.42725 200.001C1.21632 199.054 0.50879 197.602 0.50879 196.064L0.508791 186.5" stroke="#E43C0C"/>
</svg>
