<svg width="54" height="54" viewBox="0 0 54 54" fill="none" xmlns="http://www.w3.org/2000/svg">
<g clip-path="url(#clip0_3483_7158)">
<path fill-rule="evenodd" clip-rule="evenodd" d="M26.9372 54.0048C29.3624 54.0048 31.7128 53.1653 33.5892 51.6289L50.1529 38.0666C52.5886 36.0723 54.001 33.0905 54.001 29.9425L54.001 0.000175476L53.001 0.000175389L53.001 29.9425C53.001 32.7907 51.7231 35.4886 49.5194 37.2929L32.9557 50.8552C31.258 52.2452 29.1314 53.0048 26.9372 53.0048L-351.293 53.0047L-940.706 53.0047L-1318.94 53.0046C-1321.13 53.0046 -1323.26 52.2451 -1324.95 50.855L-1341.52 37.2928C-1343.72 35.4884 -1345 32.7905 -1345 29.9424L-1345 5.31715e-05L-1346 5.30841e-05L-1346 29.9424C-1346 33.0904 -1344.59 36.0722 -1342.15 38.0665L-1325.59 51.6288C-1323.71 53.1652 -1321.36 54.0046 -1318.94 54.0046L-940.706 54.0047L-351.293 54.0047L26.9372 54.0048Z" fill="#E43C0C"/>
</g>
<defs>
<clipPath id="clip0_3483_7158">
<rect width="54" height="54" fill="white"/>
</clipPath>
</defs>
</svg>
