<svg width="88" height="34" viewBox="0 0 88 34" fill="none" xmlns="http://www.w3.org/2000/svg">
<path fill-rule="evenodd" clip-rule="evenodd" d="M4.82192 1.76599L75.994 1.76599C77.6817 1.76599 79.0499 3.13417 79.0499 4.82192V8.83438C79.0307 8.95697 79.0207 9.08263 79.0207 9.21061V24.7887C79.0207 24.9167 79.0307 25.0423 79.0499 25.1649V29.1781C79.0499 30.8658 77.6817 32.234 75.994 32.234L4.82191 32.234C3.13417 32.234 1.76599 30.8658 1.76599 29.1781L1.76599 4.82192C1.76599 3.13417 3.13417 1.76599 4.82192 1.76599ZM80.8159 27.1203V29.1781C80.8159 31.8412 78.657 34 75.994 34L4.82191 34C2.15884 34 0 31.8412 0 29.1781L0 4.82192C0 2.15885 2.15885 0 4.82192 0L75.994 0C78.657 0 80.8159 2.15885 80.8159 4.82192V6.87901C81.0124 6.82723 81.2188 6.79966 81.4317 6.79966H85.5893C86.9208 6.79966 88.0002 7.87908 88.0002 9.21062V24.7887C88.0002 26.1202 86.9208 27.1997 85.5893 27.1997H81.4317C81.2188 27.1997 81.0124 27.1721 80.8159 27.1203Z" fill="#E43C0C"/>
<path d="M7.06445 9.47346C7.06445 8.14192 8.14388 7.0625 9.47541 7.0625L16.5739 7.0625C17.9055 7.0625 18.9849 8.14192 18.9849 9.47346V25.8434C18.9849 27.1749 17.9055 28.2544 16.5739 28.2544H9.47541C8.14388 28.2544 7.06445 27.1749 7.06445 25.8434L7.06445 9.47346Z" fill="#F9A68E"/>
<path d="M24.2832 9.47346C24.2832 8.14192 25.3626 7.0625 26.6942 7.0625L33.7927 7.0625C35.1242 7.0625 36.2036 8.14192 36.2036 9.47346V25.8434C36.2036 27.1749 35.1242 28.2544 33.7927 28.2544H26.6942C25.3626 28.2544 24.2832 27.1749 24.2832 25.8434V9.47346Z" fill="#F9A68E"/>
<path d="M41.501 9.47346C41.501 8.14192 42.5804 7.0625 43.9119 7.0625L51.0104 7.0625C52.342 7.0625 53.4214 8.14192 53.4214 9.47346V25.8434C53.4214 27.1749 52.342 28.2544 51.0104 28.2544H43.9119C42.5804 28.2544 41.501 27.1749 41.501 25.8434V9.47346Z" fill="#F9A68E"/>
<path d="M58.7197 9.47346C58.7197 8.14192 59.7991 7.0625 61.1307 7.0625L68.2292 7.0625C69.5607 7.0625 70.6402 8.14192 70.6402 9.47346V25.8434C70.6402 27.1749 69.5607 28.2544 68.2292 28.2544H61.1307C59.7992 28.2544 58.7197 27.1749 58.7197 25.8434V9.47346Z" fill="#36110B"/>
</svg>
