<svg width="232" height="333" viewBox="0 0 232 333" fill="none" xmlns="http://www.w3.org/2000/svg">
<path d="M0.998535 22.459V12.959C0.998535 11.3852 1.73951 9.90326 2.99854 8.95898L11.6652 2.45898C12.5307 1.80987 13.5834 1.45898 14.6652 1.45898H218.275C219.392 1.45898 220.476 1.83303 221.356 2.52146L229.58 8.95758C230.791 9.90527 231.499 11.3574 231.499 12.8951V22.459" stroke="#E43C0C"/>
<path d="M231.499 311.459L231.499 320.959C231.499 322.533 230.758 324.015 229.499 324.959L220.832 331.459C219.966 332.108 218.914 332.459 217.832 332.459L14.2225 332.459C13.1054 332.459 12.0206 332.085 11.1409 331.396L2.91699 324.96C1.70606 324.013 0.998536 322.561 0.998536 321.023L0.998537 311.459" stroke="#E43C0C"/>
</svg>
