<svg width="342" height="316" viewBox="0 0 342 316" fill="none" xmlns="http://www.w3.org/2000/svg">
<path d="M162.578 315.388L19.5355 315.388C16.9896 315.388 14.5441 314.395 12.718 312.621L3.96676 304.12C2.0702 302.278 1.00005 299.746 1.00005 297.102L1.00002 50.5115C1.00002 47.9166 2.03085 45.428 3.86574 43.5931L12.6998 34.759C14.5347 32.9241 17.0233 31.8933 19.6182 31.8933L141.066 31.8933C143.661 31.8933 146.15 30.8624 147.985 29.0275L173.049 3.96335C174.884 2.12846 177.372 1.09763 179.967 1.09762L320.301 1.0976C322.896 1.0976 325.384 2.12843 327.219 3.96332L338.134 14.8782C339.969 16.7131 341 19.2017 341 21.7966L341 290.224C341 295.627 336.619 300.008 331.216 300.008L186.063 300.008C183.468 300.008 180.979 301.039 179.144 302.874L169.496 312.522C167.661 314.357 165.173 315.388 162.578 315.388Z" stroke="white" stroke-width="0.489209"/>
</svg>
