<svg width="39" height="39" viewBox="0 0 39 39" fill="none" xmlns="http://www.w3.org/2000/svg">
<path fill-rule="evenodd" clip-rule="evenodd" d="M19.0862 2.9009C19.1959 2.897 19.306 2.89415 19.4162 2.89236V9.81447L11.9261 9.81447C12.2397 9.04396 12.5884 8.32339 12.9673 7.66024C14.6417 4.73006 16.8193 3.04963 19.0862 2.9009ZM19.5201 1.36019C19.4853 1.35965 19.4504 1.35938 19.4155 1.35938C19.276 1.35938 19.1374 1.36371 18.9997 1.37229C9.17732 1.73782 1.32666 9.81594 1.32666 19.7277C1.32666 29.6394 9.17733 37.7175 18.9997 38.0831C19.1374 38.0916 19.276 38.096 19.4155 38.096C19.4504 38.096 19.4853 38.0957 19.5201 38.0952C19.5783 38.0957 19.6366 38.096 19.695 38.096C29.8395 38.096 38.0633 29.8722 38.0633 19.7277C38.0633 9.58314 29.8395 1.35938 19.695 1.35938C19.6366 1.35938 19.5783 1.35965 19.5201 1.36019ZM20.947 3.12509V9.81447H26.9049C26.5912 9.04396 26.2426 8.32339 25.8636 7.66024C24.4879 5.25272 22.7725 3.68887 20.947 3.12509ZM28.5482 9.81447C28.1551 8.76612 27.7007 7.78988 27.1927 6.90079C26.4701 5.63624 25.6247 4.52697 24.6782 3.63972C28.1805 4.72335 31.1942 6.91916 33.3064 9.81447H28.5482ZM27.4602 11.3452H20.947V26.8589H27.8243C28.3901 24.6982 28.709 22.2835 28.709 19.7277C28.709 16.6664 28.2516 13.8075 27.4602 11.3452ZM29.4035 26.8589C29.9435 24.6617 30.2397 22.2504 30.2397 19.7277C30.2397 16.7165 29.8177 13.8643 29.0629 11.3452H34.3009C35.7206 13.8136 36.5325 16.6758 36.5325 19.7277C36.5325 22.2767 35.9661 24.6935 34.9522 26.8589H29.4035ZM27.3684 28.3896H20.947V36.3303C22.7725 35.7665 24.4879 34.2026 25.8636 31.7951C26.4411 30.7845 26.9483 29.6405 27.3684 28.3896ZM24.6782 35.8156C25.6247 34.9284 26.4701 33.8191 27.1927 32.5546C27.8977 31.3207 28.4995 29.919 28.9774 28.3896H34.1366C32.0253 31.902 28.669 34.5808 24.6782 35.8156ZM19.0861 36.5544C19.1959 36.5583 19.3059 36.5612 19.4162 36.563V28.3896H11.4626C11.8827 29.6405 12.3898 30.7845 12.9673 31.7951C14.6417 34.7253 16.8193 36.4057 19.0861 36.5544ZM11.0067 26.8589H19.4162L19.4162 11.3452L11.3708 11.3452C10.5794 13.8075 10.122 16.6664 10.122 19.7277C10.122 22.2835 10.4409 24.6982 11.0067 26.8589ZM9.76806 11.3452C9.01331 13.8643 8.59131 16.7165 8.59131 19.7277C8.59131 22.2504 8.88752 24.6617 9.42747 26.8589H4.43769C3.42382 24.6935 2.85738 22.2767 2.85738 19.7277C2.85738 16.6758 3.66933 13.8136 5.089 11.3452H9.76806ZM10.2828 9.81447H6.08349C8.02118 7.15846 10.7174 5.0911 13.8535 3.93097C13.0275 4.76524 12.2839 5.77105 11.6383 6.90079C11.1303 7.78988 10.6758 8.76612 10.2828 9.81447ZM9.85358 28.3896C10.3315 29.919 10.9332 31.3207 11.6383 32.5546C12.2839 33.6843 13.0275 34.6901 13.8535 35.5244C10.2405 34.1879 7.21144 31.6472 5.25335 28.3896H9.85358Z" fill="#7F7F7F"/>
</svg>
