<svg width="189" height="291" viewBox="0 0 189 291" fill="none" xmlns="http://www.w3.org/2000/svg">
<path d="M1.16309 21.9512V12.4512C1.16309 10.8774 1.90406 9.39544 3.16309 8.45117L11.8298 1.95117C12.6952 1.30206 13.7479 0.951172 14.8298 0.951172H174.939C176.056 0.951172 177.141 1.32522 178.021 2.01365L186.245 8.44977C187.456 9.39745 188.163 10.8496 188.163 12.3873V21.9512" stroke="#E43C0C"/>
<path d="M188.163 268.951L188.163 278.451C188.163 280.025 187.422 281.507 186.163 282.451L177.496 288.951C176.631 289.6 175.578 289.951 174.496 289.951L14.387 289.951C13.27 289.951 12.1851 289.577 11.3055 288.889L3.08154 282.453C1.87061 281.505 1.16309 280.053 1.16309 278.515L1.16309 268.951" stroke="#E43C0C"/>
</svg>
