<svg width="16" height="22" viewBox="0 0 16 22" fill="none" xmlns="http://www.w3.org/2000/svg">
<g clip-path="url(#clip0_4133_5211)">
<path d="M8.59464 6.283C10.5416 6.283 11.7626 7.306 11.7626 8.923C11.7626 10.243 10.9376 11.134 9.58465 11.431L11.8946 14.995H10.1126L7.93465 11.53H6.48265V14.995H4.93164V6.283H8.59464ZM0.410645 10.639C0.410645 6.415 3.74364 3.115 8.00064 3.115C12.2576 3.115 15.5906 6.415 15.5906 10.639C15.5906 14.863 12.2576 18.163 8.00064 18.163C3.74364 18.163 0.410645 14.863 0.410645 10.639ZM1.82964 10.639C1.82964 14.137 4.53564 16.876 8.00064 16.876C11.4656 16.876 14.1716 14.137 14.1716 10.639C14.1716 7.141 11.4656 4.402 8.00064 4.402C4.53564 4.402 1.82964 7.141 1.82964 10.639ZM6.48265 10.243H8.52864C9.58465 10.243 10.1786 9.781 10.1786 8.956C10.1786 8.131 9.58465 7.636 8.52864 7.636H6.48265V10.243Z" fill="#E43C0C"/>
</g>
<defs>
<clipPath id="clip0_4133_5211">
<rect width="16" height="22" fill="white"/>
</clipPath>
</defs>
</svg>
