<svg width="137" height="217" viewBox="0 0 137 217" fill="none" xmlns="http://www.w3.org/2000/svg">
<path d="M0.942383 21.6367V12.1367C0.942383 10.5629 1.68335 9.08099 2.94238 8.13672L11.609 1.63672C12.4745 0.987608 13.5272 0.636719 14.609 0.636719H122.718C123.835 0.636719 124.92 1.01076 125.8 1.69919L134.024 8.13532C135.235 9.083 135.942 10.5352 135.942 12.0728V21.6367" stroke="#E43C0C"/>
<path d="M135.942 194.637L135.942 204.137C135.942 205.711 135.201 207.192 133.942 208.137L125.276 214.637C124.41 215.286 123.358 215.637 122.276 215.637L14.1663 215.637C13.0493 215.637 11.9644 215.263 11.0848 214.574L2.86084 208.138C1.64991 207.19 0.942384 205.738 0.942384 204.201L0.942385 194.637" stroke="#E43C0C"/>
</svg>
