<svg width="54" height="54" viewBox="0 0 54 54" fill="none" xmlns="http://www.w3.org/2000/svg">
<g clip-path="url(#clip0_3482_7150)">
<path fill-rule="evenodd" clip-rule="evenodd" d="M-1318.94 0C-1321.36 0 -1323.71 0.839488 -1325.59 2.37588L-1342.15 15.9381C-1344.59 17.9324 -1346 20.9143 -1346 24.0622V54.0046H-1345V24.0622C-1345 21.2141 -1343.72 18.5162 -1341.52 16.7118L-1324.95 3.1496C-1323.26 1.75954 -1321.13 1 -1318.94 1H-940.706H-351.293H26.9373C29.1315 1 31.2579 1.75954 32.9557 3.1496L49.5194 16.7118C51.7231 18.5162 53.001 21.2141 53.001 24.0622V54.0046H54.001V24.0622C54.001 20.9143 52.5886 17.9324 50.153 15.9381L33.5892 2.37588C31.7128 0.839488 29.3624 0 26.9373 0H-351.293H-940.706H-1318.94Z" fill="#E43C0C"/>
</g>
<defs>
<clipPath id="clip0_3482_7150">
<rect width="54" height="54" fill="white"/>
</clipPath>
</defs>
</svg>
