<svg width="140" height="32" viewBox="0 0 140 32" fill="none" xmlns="http://www.w3.org/2000/svg">
<path d="M13 32L8.84271 32C8.02522 32 7.24313 31.6664 6.67734 31.0763L0.83463 24.9831C0.299035 24.4245 -7.27303e-07 23.6806 -7.94956e-07 22.9068L-2.53527e-06 2.99993C-2.68011e-06 1.34308 1.34314 -6.8782e-05 3 -6.89268e-05L13 -6.59864e-05L13 32Z" fill="#E43C0C"/>
<rect width="114" height="32" transform="translate(13)" fill="#E43C0C"/>
<path d="M127 5.24537e-06L131.157 -1.54611e-06C131.975 -1.40317e-06 132.757 0.333607 133.323 0.923663L139.165 7.0169C139.701 7.57547 140 8.31939 140 9.09324L140 29C140 30.6569 138.657 32 137 32L127 32L127 5.24537e-06Z" fill="#E43C0C"/>
</svg>
