<svg width="54" height="54" viewBox="0 0 54 54" fill="none" xmlns="http://www.w3.org/2000/svg">
<g clip-path="url(#clip0_3482_7149)">
<path fill-rule="evenodd" clip-rule="evenodd" d="M27.064 0C24.6388 0 22.2884 0.839488 20.412 2.37588L3.84828 15.9381C1.41262 17.9324 0.000244141 20.9143 0.000244141 24.0622V54.0046H1.00024V24.0622C1.00024 21.2141 2.27811 18.5162 4.4818 16.7118L21.0455 3.1496C22.7432 1.75954 24.8698 1 27.064 1H405.294H994.707H1372.94C1375.13 1 1377.26 1.75954 1378.96 3.1496L1395.52 16.7118C1397.72 18.5162 1399 21.2141 1399 24.0622V54.0046H1400V24.0622C1400 20.9143 1398.59 17.9324 1396.15 15.9381L1379.59 2.37588C1377.71 0.839488 1375.36 0 1372.94 0H994.707H405.294H27.064Z" fill="#E43C0C"/>
</g>
<defs>
<clipPath id="clip0_3482_7149">
<rect width="54" height="54" fill="white"/>
</clipPath>
</defs>
</svg>
