<svg width="54" height="54" viewBox="0 0 54 54" fill="none" xmlns="http://www.w3.org/2000/svg">
<g clip-path="url(#clip0_3483_7153)">
<path fill-rule="evenodd" clip-rule="evenodd" d="M1372.94 54.0687C1375.36 54.0687 1377.71 53.2292 1379.59 51.6928L1396.15 38.1306C1398.59 36.1363 1400 33.1544 1400 30.0065L1400 0.0641403L1399 0.0641402L1399 30.0065C1399 32.8546 1397.72 35.5525 1395.52 37.3569L1378.96 50.9191C1377.26 52.3092 1375.13 53.0687 1372.94 53.0687L994.707 53.0687L405.294 53.0686L27.064 53.0686C24.8698 53.0686 22.7433 52.3091 21.0455 50.919L4.48181 37.3568C2.27808 35.5524 1.00025 32.8545 1.00025 30.0064L1.00025 0.064018L0.000248862 0.0640179L0.000246244 30.0064C0.000245969 33.1543 1.4126 36.1362 3.84827 38.1305L20.412 51.6927C22.2885 53.2291 24.6388 54.0686 27.064 54.0686L405.294 54.0686L994.707 54.0687L1372.94 54.0687Z" fill="#E43C0C"/>
</g>
<defs>
<clipPath id="clip0_3483_7153">
<rect width="54" height="54" fill="white"/>
</clipPath>
</defs>
</svg>
