<svg width="73" height="30" viewBox="0 0 73 30" fill="none" xmlns="http://www.w3.org/2000/svg">
<path fill-rule="evenodd" clip-rule="evenodd" d="M4.25342 2.05091H62.177C63.577 2.05091 64.712 3.18588 64.712 4.58594V25.8853C64.712 27.2854 63.577 28.4203 62.177 28.4203H4.25342C2.85336 28.4203 1.71839 27.2854 1.71839 25.8853V4.58594C1.71839 3.18588 2.85336 2.05091 4.25342 2.05091ZM0.253418 4.58594C0.253418 2.3768 2.04428 0.585938 4.25342 0.585938H62.177C64.3861 0.585938 66.177 2.3768 66.177 4.58594V6.51779C66.3474 6.47055 66.527 6.44531 66.7124 6.44531H70.0372C71.1418 6.44531 72.0372 7.34074 72.0372 8.44531V22.0249C72.0372 23.1295 71.1418 24.0249 70.0372 24.0249H66.7124C66.527 24.0249 66.3474 23.9997 66.177 23.9525V25.8853C66.177 28.0944 64.3861 29.8853 62.177 29.8853H4.25342C2.04428 29.8853 0.253418 28.0944 0.253418 25.8853V4.58594Z" fill="#E43C0C"/>
<rect x="6.11377" y="6.44531" width="9.88854" height="17.5796" rx="2" fill="#F9A68E"/>
<rect x="20.397" y="6.44531" width="9.88854" height="17.5796" rx="2" fill="#36110B"/>
<rect x="34.6807" y="6.44531" width="9.88854" height="17.5796" rx="2" fill="#36110B"/>
<rect x="48.9639" y="6.44531" width="9.88854" height="17.5796" rx="2" fill="#36110B"/>
</svg>
