<svg width="73" height="30" viewBox="0 0 73 30" fill="none" xmlns="http://www.w3.org/2000/svg">
<path fill-rule="evenodd" clip-rule="evenodd" d="M4.25342 1.53528H62.177C63.577 1.53528 64.712 2.67026 64.712 4.07031V25.3697C64.712 26.7697 63.577 27.9047 62.177 27.9047H4.25342C2.85336 27.9047 1.71839 26.7697 1.71839 25.3697V4.07031C1.71839 2.67025 2.85336 1.53528 4.25342 1.53528ZM0.253418 4.07031C0.253418 1.86117 2.04428 0.0703125 4.25342 0.0703125H62.177C64.3861 0.0703125 66.177 1.86117 66.177 4.07031V6.00216C66.3474 5.95493 66.527 5.92969 66.7124 5.92969H70.0372C71.1418 5.92969 72.0372 6.82512 72.0372 7.92969V21.5093C72.0372 22.6139 71.1418 23.5093 70.0372 23.5093H66.7124C66.527 23.5093 66.3474 23.4841 66.177 23.4368V25.3697C66.177 27.5788 64.3861 29.3697 62.177 29.3697H4.25342C2.04428 29.3697 0.253418 27.5788 0.253418 25.3697V4.07031Z" fill="#E43C0C"/>
<rect x="6.11377" y="5.92969" width="9.88854" height="17.5796" rx="2" fill="#F9A68E"/>
<rect x="20.397" y="5.92969" width="9.88854" height="17.5796" rx="2" fill="#F9A68E"/>
<rect x="34.6807" y="5.92969" width="9.88854" height="17.5796" rx="2" fill="#36110B"/>
<rect x="48.9639" y="5.92969" width="9.88854" height="17.5796" rx="2" fill="#36110B"/>
</svg>
