<svg width="322" height="475" viewBox="0 0 322 475" fill="none" xmlns="http://www.w3.org/2000/svg">
<path d="M321 87.512V461.288C321 468.309 315.309 474 308.288 474H44.6012C40.9182 474 37.4162 472.403 35.0017 469.622L4.11279 434.041C2.10532 431.729 1 428.77 1 425.708V13.7123C1 6.69147 6.69147 1 13.7122 1H114.157C119.165 1 123.706 3.94027 125.756 8.50965L131.068 20.3526C133.118 24.922 137.659 27.8622 142.667 27.8622H250.395H262.371C265.791 27.8622 269.066 29.2402 271.458 31.6849L317.375 78.6224C319.699 80.9979 321 84.1889 321 87.512Z" fill="black" stroke="#E43C0C" stroke-width="1.15566"/>
</svg>
