<svg width="50" height="32" viewBox="0 0 50 32" fill="none" xmlns="http://www.w3.org/2000/svg">
<g clip-path="url(#clip0_1255_406)">
<path d="M41.8826 10.6641V11.1487C41.8826 11.2773 41.9339 11.4006 42.0253 11.4914C42.0705 11.5364 42.1242 11.5721 42.1833 11.5965C42.2424 11.6209 42.3057 11.6334 42.3696 11.6334C42.4988 11.6334 42.6227 11.5823 42.714 11.4914C42.7592 11.4464 42.7951 11.393 42.8196 11.3342C42.8441 11.2754 42.8567 11.2124 42.8567 11.1487V10.6641H41.8826ZM39.9346 10.6641V11.1487C39.9346 11.2773 39.9859 11.4006 40.0772 11.4914C40.1225 11.5364 40.1761 11.5721 40.2352 11.5965C40.2943 11.6209 40.3576 11.6334 40.4216 11.6334C40.5508 11.6334 40.6746 11.5823 40.7659 11.4914C40.8112 11.4464 40.8471 11.393 40.8715 11.3342C40.896 11.2754 40.9086 11.2124 40.9086 11.1487V10.6641H39.9346ZM37.9865 10.6641V11.1487C37.9865 11.2773 38.0378 11.4006 38.1292 11.4914C38.1744 11.5364 38.2281 11.5721 38.2872 11.5965C38.3463 11.6209 38.4096 11.6334 38.4735 11.6334C38.6027 11.6334 38.7266 11.5823 38.8179 11.4914C38.8631 11.4464 38.899 11.393 38.9235 11.3342C38.948 11.2754 38.9606 11.2124 38.9606 11.1487V10.6641H37.9865ZM36.0385 10.6641V11.1487C36.0385 11.2773 36.0898 11.4006 36.1811 11.4914C36.2264 11.5364 36.28 11.5721 36.3391 11.5965C36.3982 11.6209 36.4615 11.6334 36.5255 11.6334C36.6546 11.6334 36.7785 11.5823 36.8698 11.4914C36.9151 11.4464 36.951 11.393 36.9754 11.3342C36.9999 11.2754 37.0125 11.2124 37.0125 11.1487V10.6641H36.0385ZM40.9086 13.8952V13.4105C40.9086 13.282 40.9599 13.1587 41.0513 13.0678C41.0965 13.0228 41.1502 12.9871 41.2093 12.9627C41.2683 12.9384 41.3317 12.9258 41.3956 12.9258C41.5248 12.9258 41.6487 12.9769 41.74 13.0678C41.7852 13.1128 41.8211 13.1662 41.8456 13.225C41.87 13.2838 41.8826 13.3468 41.8826 13.4105V13.8952H40.9086ZM38.9606 13.8952V13.4105C38.9606 13.282 39.0119 13.1587 39.1032 13.0678C39.1484 13.0228 39.2021 12.9871 39.2612 12.9627C39.3203 12.9384 39.3836 12.9258 39.4476 12.9258C39.5767 12.9258 39.7006 12.9769 39.7919 13.0678C39.8372 13.1128 39.873 13.1662 39.8975 13.225C39.922 13.2838 39.9346 13.3468 39.9346 13.4105V13.8952H38.9606ZM37.0125 13.8952V13.4105C37.0125 13.282 37.0638 13.1587 37.1552 13.0678C37.2004 13.0228 37.2541 12.9871 37.3131 12.9627C37.3722 12.9384 37.4356 12.9258 37.4995 12.9258C37.6287 12.9258 37.7526 12.9769 37.8439 13.0678C37.8891 13.1128 37.925 13.1662 37.9495 13.225C37.9739 13.2838 37.9865 13.3468 37.9865 13.4105V13.8952H37.0125ZM35.0645 13.8952V13.4105C35.0645 13.282 35.1158 13.1587 35.2071 13.0678C35.2523 13.0228 35.306 12.9871 35.3651 12.9627C35.4242 12.9384 35.4875 12.9258 35.5515 12.9258C35.6806 12.9258 35.8045 12.9769 35.8958 13.0678C35.9411 13.1128 35.9769 13.1662 36.0014 13.225C36.0259 13.2838 36.0385 13.3468 36.0385 13.4105V13.8952H35.0645Z" fill="white"/>
<path d="M49.8097 31.0181L47.4023 28.6223V27.787C47.3978 26.7006 47.0023 25.6517 46.2876 24.8304C45.5729 24.0091 44.5861 23.4698 43.5062 23.3104V22.6173H44.1555C45.361 22.6173 46.5172 22.1407 47.3696 21.2923C48.2221 20.444 48.701 19.2935 48.701 18.0937V13.5702C48.701 13.3988 48.6325 13.2344 48.5108 13.1133C48.389 12.9921 48.2238 12.924 48.0516 12.924C47.8794 12.924 47.7142 12.9921 47.5925 13.1133C47.4707 13.2345 47.4023 13.3988 47.4023 13.5702V13.7318C47.4023 13.753 47.3981 13.774 47.3899 13.7936C47.3818 13.8132 47.3698 13.831 47.3547 13.846C47.3397 13.861 47.3218 13.8729 47.3021 13.881C47.2824 13.8892 47.2613 13.8933 47.2399 13.8933C47.2186 13.8933 47.1975 13.8892 47.1778 13.881C47.1581 13.8729 47.1402 13.861 47.1251 13.846C47.1101 13.831 47.0981 13.8132 47.0899 13.7936C47.0818 13.774 47.0776 13.753 47.0776 13.7318V13.5702C47.0776 13.3988 47.0092 13.2344 46.8874 13.1133C46.7656 12.9921 46.6005 12.924 46.4282 12.924C46.256 12.924 46.0908 12.9921 45.9691 13.1133C45.8473 13.2345 45.7789 13.3988 45.7789 13.5702V13.7318C45.7789 13.753 45.7747 13.774 45.7665 13.7936C45.7584 13.8132 45.7464 13.831 45.7314 13.846C45.7163 13.861 45.6984 13.8729 45.6787 13.881C45.659 13.8892 45.6379 13.8933 45.6166 13.8933C45.5952 13.8933 45.5741 13.8892 45.5544 13.881C45.5347 13.8729 45.5168 13.861 45.5017 13.846C45.4867 13.831 45.4747 13.8132 45.4666 13.7936C45.4584 13.774 45.4542 13.753 45.4542 13.7318V13.5702C45.4542 13.3988 45.3858 13.2344 45.264 13.1133C45.1422 12.9921 44.9771 12.924 44.8049 12.924C44.6327 12.924 44.4675 12.9921 44.3457 13.1133C44.2239 13.2345 44.1555 13.3988 44.1555 13.5702V17.4475C44.1555 17.6189 44.0871 17.7833 43.9653 17.9045C43.8435 18.0257 43.6784 18.0937 43.5062 18.0937V13.5702H35.0646C34.7202 13.5702 34.3899 13.4341 34.1463 13.1917C33.9647 13.0109 33.841 12.7806 33.7909 12.5299C33.7407 12.2792 33.7665 12.0193 33.8648 11.7832C33.963 11.547 34.1295 11.3452 34.3431 11.2031C34.5567 11.0611 34.8077 10.9853 35.0646 10.9853H43.5062V9.97401C43.7841 9.9017 44.0301 9.73976 44.2056 9.51351C44.3812 9.28726 44.4765 9.00945 44.4765 8.72357C44.4765 8.4377 44.3812 8.15989 44.2056 7.93363C44.0301 7.70739 43.7841 7.54545 43.5062 7.47314V5.81559L42.6945 5.00781H32.6295L31.8179 5.81559V7.47314C31.5399 7.54545 31.294 7.70739 31.1184 7.93363C30.9428 8.15989 30.8475 8.4377 30.8475 8.72357C30.8475 9.00945 30.9428 9.28726 31.1184 9.51351C31.294 9.73976 31.5399 9.9017 31.8179 9.97401V18.0937C31.6456 18.0937 31.4805 18.0257 31.3587 17.9045C31.2369 17.7833 31.1685 17.6189 31.1685 17.4475V13.5702C31.1685 13.3988 31.1001 13.2344 30.9783 13.1133C30.8565 12.9921 30.6914 12.924 30.5192 12.924C30.3469 12.924 30.1817 12.9921 30.06 13.1133C29.9382 13.2345 29.8698 13.3988 29.8698 13.5702V13.7318C29.8698 13.753 29.8656 13.774 29.8575 13.7936C29.8493 13.8132 29.8373 13.831 29.8223 13.846C29.8072 13.861 29.7893 13.8729 29.7696 13.881C29.7499 13.8892 29.7288 13.8933 29.7075 13.8933C29.6861 13.8933 29.665 13.8892 29.6453 13.881C29.6256 13.8729 29.6077 13.861 29.5927 13.846C29.5776 13.831 29.5656 13.8132 29.5575 13.7936C29.5493 13.774 29.5451 13.753 29.5451 13.7318V13.5702C29.5451 13.3988 29.4767 13.2344 29.3549 13.1133C29.2332 12.9921 29.068 12.924 28.8958 12.924C28.7236 12.924 28.5584 12.9921 28.4366 13.1133C28.3148 13.2345 28.2464 13.3988 28.2464 13.5702V13.7318C28.2464 13.753 28.2422 13.774 28.2341 13.7936C28.2259 13.8132 28.214 13.831 28.1989 13.846C28.1838 13.861 28.1659 13.8729 28.1462 13.881C28.1265 13.8892 28.1054 13.8933 28.0841 13.8933C28.0628 13.8933 28.0417 13.8892 28.022 13.881C28.0023 13.8729 27.9844 13.861 27.9693 13.846C27.9542 13.831 27.9423 13.8132 27.9341 13.7936C27.9259 13.774 27.9217 13.753 27.9217 13.7318V13.5702C27.9217 13.3988 27.8533 13.2344 27.7316 13.1133C27.6098 12.9921 27.4446 12.924 27.2724 12.924C27.1002 12.924 26.935 12.9921 26.8132 13.1133C26.6915 13.2345 26.6231 13.3988 26.623 13.5702V18.0937C26.623 19.2935 27.1019 20.444 27.9544 21.2923C28.8068 22.1407 29.963 22.6173 31.1685 22.6173H31.8179V25.2022C31.8179 25.6297 35.925 27.787 35.925 27.787H42.2075C42.3797 27.787 42.5449 27.8551 42.6666 27.9763C42.7884 28.0975 42.8568 28.2619 42.8568 28.4333V31.0181H49.8097Z" fill="white"/>
<path d="M35.7149 9.53299C36.5218 9.53299 37.176 8.88198 37.176 8.07899C37.176 7.276 36.5218 6.625 35.7149 6.625C34.9081 6.625 34.2539 7.276 34.2539 8.07899C34.2539 8.88198 34.9081 9.53299 35.7149 9.53299Z" fill="black"/>
<path d="M35.714 8.88508C36.1623 8.88508 36.5257 8.52345 36.5257 8.07731C36.5257 7.63116 36.1623 7.26953 35.714 7.26953C35.2657 7.26953 34.9023 7.63116 34.9023 8.07731C34.9023 8.52345 35.2657 8.88508 35.714 8.88508Z" fill="white"/>
<path d="M39.6095 9.53299C40.4164 9.53299 41.0705 8.88198 41.0705 8.07899C41.0705 7.276 40.4164 6.625 39.6095 6.625C38.8026 6.625 38.1484 7.276 38.1484 8.07899C38.1484 8.88198 38.8026 9.53299 39.6095 9.53299Z" fill="black"/>
<path d="M39.6105 8.88508C40.0588 8.88508 40.4222 8.52345 40.4222 8.07731C40.4222 7.63116 40.0588 7.26953 39.6105 7.26953C39.1622 7.26953 38.7988 7.63116 38.7988 8.07731C38.7988 8.52345 39.1622 8.88508 39.6105 8.88508Z" fill="white"/>
<path d="M31.8164 5.17028C31.8164 2.70657 33.2369 1.29297 35.7125 1.29297H39.6086C42.0843 1.29297 43.5047 2.70657 43.5047 5.17028V5.8165C43.2206 5.8165 43.1184 5.65495 43.0177 5.49339C42.9171 5.33184 42.8148 5.17028 42.5307 5.17028C42.2466 5.17028 42.1443 5.33184 42.0437 5.49339C41.943 5.65495 41.8408 5.8165 41.5567 5.8165C41.2726 5.8165 41.1703 5.65495 41.0697 5.49339C40.969 5.33184 40.8667 5.17028 40.5826 5.17028C40.2985 5.17028 40.1963 5.33184 40.0956 5.49339C39.995 5.65495 39.8927 5.8165 39.6086 5.8165C39.3245 5.8165 39.2223 5.65495 39.1216 5.49339C39.021 5.33184 38.9187 5.17028 38.6346 5.17028C38.3505 5.17028 38.2482 5.33184 38.1476 5.49339C38.0469 5.65495 37.9447 5.8165 37.6606 5.8165C37.3765 5.8165 37.2742 5.65495 37.1735 5.49339C37.0729 5.33184 36.9706 5.17028 36.6865 5.17028C36.4024 5.17028 36.3002 5.33184 36.1995 5.49339C36.0989 5.65495 35.9966 5.8165 35.7125 5.8165C35.4284 5.8165 35.3261 5.65495 35.2255 5.49339C35.1248 5.33184 35.0226 5.17028 34.7385 5.17028C34.4544 5.17028 34.3521 5.33184 34.2515 5.49339C34.1508 5.65495 34.0485 5.8165 33.7645 5.8165C33.4804 5.8165 33.3781 5.65495 33.2774 5.49339C33.1768 5.33184 33.0745 5.17028 32.7904 5.17028C32.5063 5.17028 32.4041 5.33184 32.3034 5.49339C32.2028 5.65495 32.1005 5.8165 31.8164 5.8165V5.17028Z" fill="white"/>
<path d="M16.8839 13.572L16.2345 12.2796L15.5852 13.572L16.2345 13.8952L16.8839 13.572ZM14.9358 13.572L14.2865 12.2796L13.6371 13.572L14.2865 13.8952L14.9358 13.572ZM12.9878 13.572L12.3384 12.2796L11.6891 13.572L12.3384 13.8952L12.9878 13.572ZM11.0397 13.572L10.3904 12.2796L9.74102 13.572L10.3904 13.8952L11.0397 13.572ZM9.09167 13.572L8.44232 12.2796L7.79297 13.572L8.44232 13.8952L9.09167 13.572ZM15.9099 10.9872L15.2605 12.2796L14.6112 10.9872L15.2605 10.6641L15.9099 10.9872ZM13.9618 10.9872L13.3124 12.2796L12.6631 10.9872L13.3124 10.6641L13.9618 10.9872ZM12.0137 10.9872L11.3644 12.2796L10.715 10.9872L11.3644 10.6641L12.0137 10.9872ZM10.0657 10.9872L9.41635 12.2796L8.76699 10.9872L9.41635 10.6641L10.0657 10.9872Z" fill="white"/>
<path d="M5.84329 24.4586L1.92773 22.2937L5.84329 20.1289V24.4586Z" fill="white"/>
<path d="M5.84329 21.2281L1.92773 19.0633L5.84329 16.8984V21.2281Z" fill="white"/>
<path d="M5.84329 17.9976L1.92773 15.8328L5.84329 13.668V17.9976Z" fill="white"/>
<path d="M5.84329 14.7672L1.92773 12.6023L5.84329 10.4375V14.7672Z" fill="white"/>
<path d="M8.44194 13.5706C8.09752 13.5706 7.7672 13.4344 7.52363 13.192C7.342 13.0113 7.2183 12.781 7.16819 12.5303C7.11807 12.2796 7.14379 12.0197 7.24208 11.7836C7.34038 11.5474 7.50684 11.3455 7.72041 11.2035C7.93399 11.0615 8.18508 10.9857 8.44194 10.9857H16.8835V5.16975C16.8835 4.07926 16.6043 3.19555 16.0718 2.54933L16.9306 1.69471C17.2101 1.8617 17.5316 1.94629 17.8575 1.93866C17.9436 1.93865 18.0262 1.90461 18.0871 1.84402C18.148 1.78341 18.1822 1.70123 18.1822 1.61555C18.1822 1.52986 18.148 1.44769 18.0871 1.38708C18.0262 1.32648 17.9436 1.29244 17.8575 1.29244C17.239 1.29244 16.8835 0.938633 16.8835 0.32311C16.8835 0.237424 16.8493 0.155247 16.7884 0.0946388C16.7275 0.0340461 16.6449 4.65928e-06 16.5588 0C16.4727 4.65928e-06 16.3901 0.0340461 16.3292 0.0946388C16.2683 0.155247 16.2342 0.237424 16.2341 0.32311C16.228 0.644765 16.313 0.961639 16.4793 1.23751L15.6205 2.10021C14.9712 1.57031 14.0832 1.29244 12.9874 1.29244H9.09129C7.99551 1.29244 7.10752 1.57031 6.45817 2.10021L5.59941 1.24559C5.7672 0.967379 5.8522 0.647493 5.84454 0.32311C5.84453 0.237424 5.81033 0.155247 5.74947 0.0946388C5.68857 0.0340461 5.60598 4.65928e-06 5.51986 0C5.43374 4.65928e-06 5.35115 0.0340461 5.29025 0.0946388C5.22939 0.155247 5.19519 0.237424 5.19519 0.32311C5.19519 0.938633 4.83967 1.29244 4.22116 1.29244C4.17852 1.29244 4.1363 1.30079 4.09691 1.31703C4.05752 1.33327 4.02172 1.35707 3.99157 1.38707C3.96142 1.41707 3.93751 1.45269 3.92119 1.4919C3.90488 1.5311 3.89648 1.57312 3.89648 1.61555C3.89648 1.65798 3.90488 1.7 3.92119 1.7392C3.93751 1.7784 3.96142 1.81402 3.99157 1.84403C4.02172 1.87403 4.05752 1.89783 4.09691 1.91407C4.1363 1.9303 4.17852 1.93866 4.22116 1.93866C4.54437 1.94476 4.86279 1.86023 5.13999 1.69471L6.00687 2.54933C5.47441 3.19555 5.19519 4.07926 5.19519 5.16975V25.2025C5.19519 26.7912 8.76661 27.1412 9.30233 27.7874H15.5848C15.757 27.7874 15.9222 27.8555 16.044 27.9767C16.1657 28.0979 16.2341 28.2623 16.2341 28.4336V31.0185H23.1871L20.7796 28.6227V27.7874C20.7751 26.701 20.3797 25.652 19.6649 24.8308C18.9502 24.0095 17.9634 23.4702 16.8835 23.3107V23.2639H25.2764L23.3965 21.7663L25.7017 21.0021L23.3965 20.238L25.2764 18.7404H16.8835V18.0941H25.2764L23.3965 16.5965L25.7017 15.8324L23.3965 15.0682L25.2764 13.5706H8.44194Z" fill="white"/>
<path d="M9.08995 9.53299C9.89683 9.53299 10.551 8.88198 10.551 8.07899C10.551 7.276 9.89683 6.625 9.08995 6.625C8.28306 6.625 7.62891 7.276 7.62891 8.07899C7.62891 8.88198 8.28306 9.53299 9.08995 9.53299Z" fill="black"/>
<path d="M9.09099 8.88508C9.5393 8.88508 9.90267 8.52345 9.90267 8.07731C9.90267 7.63116 9.5393 7.26953 9.09099 7.26953C8.64267 7.26953 8.2793 7.63116 8.2793 8.07731C8.2793 8.52345 8.64267 8.88508 9.09099 8.88508Z" fill="white"/>
<path d="M12.9884 9.53299C13.7953 9.53299 14.4494 8.88198 14.4494 8.07899C14.4494 7.276 13.7953 6.625 12.9884 6.625C12.1815 6.625 11.5273 7.276 11.5273 8.07899C11.5273 8.88198 12.1815 9.53299 12.9884 9.53299Z" fill="black"/>
<path d="M12.9875 8.88508C13.4358 8.88508 13.7992 8.52345 13.7992 8.07731C13.7992 7.63116 13.4358 7.26953 12.9875 7.26953C12.5392 7.26953 12.1758 7.63116 12.1758 8.07731C12.1758 8.52345 12.5392 8.88508 12.9875 8.88508Z" fill="white"/>
<path d="M5.92266 23.2656H7.14286L9.41558 27.7892H7.14286C6.98104 27.7892 6.82584 27.8573 6.71143 27.9784C6.59701 28.0996 6.53273 28.264 6.53273 28.4354V31.0203H0L2.26198 28.6244V27.7892C2.26618 26.7027 2.63773 25.6538 3.3093 24.8325C3.98086 24.0112 4.90799 23.472 5.92266 23.3125V23.2656Z" fill="white"/>
<path d="M32.5457 23.2656H33.7659L36.0386 27.7892H33.7659C33.6041 27.7892 33.4489 27.8573 33.3345 27.9784C33.2201 28.0996 33.1558 28.264 33.1558 28.4354V31.0203H26.623L28.8851 28.6244V27.7892C28.8892 26.7027 29.2608 25.6538 29.9323 24.8325C30.6039 24.0112 31.531 23.472 32.5457 23.3125V23.2656Z" fill="white"/>
</g>
<defs>
<clipPath id="clip0_1255_406">
<rect width="50" height="31.0185" fill="white"/>
</clipPath>
</defs>
</svg>
